<svg width="35" height="35" viewBox="0 0 35 35" fill="none" xmlns="http://www.w3.org/2000/svg">
<path d="M18.5938 10.2082C18.5938 9.60411 18.1041 9.11442 17.5 9.11442C16.896 9.11442 16.4063 9.60411 16.4063 10.2082V18.9582C16.4063 19.5622 16.896 20.0519 17.5 20.0519H23.3334C23.9374 20.0519 24.4271 19.5622 24.4271 18.9582C24.4271 18.3541 23.9374 17.8644 23.3334 17.8644H18.5938V10.2082Z" fill="white"/>
<path fill-rule="evenodd" clip-rule="evenodd" d="M32.0834 17.4998C32.0834 25.554 25.5542 32.0832 17.5 32.0832C9.44587 32.0832 2.91669 25.554 2.91669 17.4998C2.91669 9.44568 9.44587 2.9165 17.5 2.9165C25.5542 2.9165 32.0834 9.44568 32.0834 17.4998ZM29.8959 17.4998C29.8959 24.3459 24.3461 29.8957 17.5 29.8957C10.654 29.8957 5.10419 24.3459 5.10419 17.4998C5.10419 10.6538 10.654 5.104 17.5 5.104C24.3461 5.104 29.8959 10.6538 29.8959 17.4998Z" fill="white"/>
</svg>
