<svg width="41" height="41" viewBox="0 0 41 41" fill="none" xmlns="http://www.w3.org/2000/svg">
<path fill-rule="evenodd" clip-rule="evenodd" d="M20.7653 8.08839C20.6294 7.93336 20.3707 7.93336 20.2348 8.08839L19.4063 9.03339C18.6538 9.89179 17.4288 10.1593 16.3858 9.71201L15.22 9.21199C15.0048 9.1197 14.7917 9.24992 14.7467 9.41564L13.6477 9.11687L14.7467 9.41564L14.4197 10.6185C14.1178 11.7289 13.1188 12.491 11.9846 12.5302L10.7123 12.5742C10.4771 12.5824 10.3619 12.779 10.3919 12.9319L10.6311 14.1543C10.853 15.2883 10.2866 16.4133 9.27084 16.9355L8.75009 15.9226L9.27084 16.9355L8.14407 17.5148C7.95951 17.6097 7.92799 17.8153 8.03167 17.952L8.78974 18.9519C9.48546 19.8695 9.48546 21.1303 8.78974 22.0479L8.12577 21.5445L8.78974 22.0479L8.03167 23.0478C7.92799 23.1845 7.95951 23.3901 8.14407 23.485L7.62332 24.4978L8.14407 23.485L9.27084 24.0643L8.75009 25.0772L9.27084 24.0643C10.2866 24.5865 10.853 25.7115 10.6311 26.8454L10.3919 28.0679C10.3619 28.2208 10.4771 28.4174 10.7123 28.4256L11.9846 28.4696C13.1188 28.5088 14.1178 29.2709 14.4197 30.3813L14.7467 31.5841C14.7917 31.7499 15.0048 31.8801 15.22 31.7878L16.3858 31.2878C17.4288 30.8405 18.6538 31.108 19.4063 31.9664L20.2348 32.9114C20.3707 33.0664 20.6294 33.0664 20.7653 32.9114L21.5938 31.9664C22.3463 31.108 23.5713 30.8405 24.6143 31.2878L25.7801 31.7878C25.9953 31.8801 26.2084 31.7499 26.2534 31.5841L26.5804 30.3813C26.8823 29.2709 27.8813 28.5088 29.0155 28.4696L30.2878 28.4256C30.523 28.4174 30.6382 28.2208 30.6082 28.0679L30.369 26.8454C30.1471 25.7115 30.7135 24.5865 31.7293 24.0643L32.856 23.485C33.0406 23.3901 33.0721 23.1845 32.9684 23.0478L32.2104 22.0479C31.5146 21.1303 31.5146 19.8695 32.2104 18.9519L32.9684 17.952C33.0721 17.8153 33.0406 17.6097 32.856 17.5148L31.7293 16.9355C30.7135 16.4133 30.1471 15.2883 30.369 14.1543L30.6082 12.9319C30.6382 12.779 30.523 12.5824 30.2878 12.5742L29.0155 12.5302C27.8813 12.491 26.8823 11.7289 26.5804 10.6185L26.2534 9.41564C26.2084 9.24992 25.9953 9.1197 25.7801 9.21199L24.6143 9.71201C23.5713 10.1593 22.3463 9.89179 21.5938 9.03339L20.7653 8.08839ZM22.4781 6.58684L21.6217 7.33761L22.4781 6.58684L23.3066 7.53184C23.4005 7.63895 23.5683 7.68219 23.7165 7.61864L24.8823 7.11863C26.3265 6.49924 28.031 7.27183 28.4514 8.81809L28.7784 10.0209C28.8106 10.1394 28.9286 10.2481 29.0943 10.2538L30.3666 10.2978C31.9423 10.3523 33.1541 11.7825 32.8436 13.3694L32.6044 14.5918C32.5819 14.7068 32.6353 14.8401 32.7708 14.9098L33.8975 15.4891C35.3167 16.2187 35.7588 18.0418 34.7835 19.3281L34.0254 20.328C33.9466 20.432 33.9466 20.5678 34.0254 20.6718L34.7835 21.6716C35.7588 22.958 35.3167 24.7811 33.8975 25.5107L32.7708 26.09C32.6353 26.1597 32.5819 26.293 32.6044 26.408L32.8436 27.6304C33.1541 29.2173 31.9423 30.6475 30.3666 30.702L29.0943 30.746C28.9286 30.7517 28.8106 30.8604 28.7784 30.9789L28.4514 32.1817C28.031 33.728 26.3265 34.5005 24.8823 33.8812L23.7165 33.3811L24.1139 32.4546L23.7165 33.3811C23.5683 33.3176 23.4005 33.3608 23.3066 33.4679L22.4781 34.4129C21.4349 35.6029 19.5652 35.6029 18.522 34.413L17.6935 33.4679C17.5996 33.3608 17.4318 33.3176 17.2836 33.3811L16.1178 33.8812C14.6736 34.5005 12.969 33.728 12.5487 32.1817L12.2217 30.9789C12.1895 30.8604 12.0715 30.7517 11.9058 30.746L10.6335 30.702C9.05781 30.6475 7.84595 29.2173 8.15651 27.6304L8.39573 26.408C8.41823 26.293 8.36484 26.1597 8.22934 26.09L7.10257 25.5107C5.68339 24.7811 5.2413 22.958 6.21658 21.6716L6.90477 22.1934L6.21658 21.6716L6.97465 20.6718C7.05345 20.5678 7.05345 20.432 6.97465 20.328L6.21658 19.3281C5.2413 18.0418 5.68339 16.2187 7.10257 15.4891L8.22934 14.9098C8.36484 14.8401 8.41823 14.7068 8.39573 14.5918L8.15651 13.3694C7.84595 11.7825 9.05782 10.3523 10.6335 10.2978L11.9058 10.2538C12.0715 10.2481 12.1895 10.1394 12.2217 10.0209L13.1418 10.2711L12.2217 10.0209L12.5487 8.81809C12.969 7.27183 14.6736 6.49924 16.1178 7.11863L17.2836 7.61864L16.8347 8.66532L17.2836 7.61864C17.4318 7.68219 17.5996 7.63895 17.6935 7.53184L18.522 6.58683C19.5652 5.39683 21.4349 5.39684 22.4781 6.58684ZM24.8744 16.0751C25.3241 15.6354 26.0452 15.6435 26.4849 16.0933C26.9246 16.5431 26.9164 17.2641 26.4666 17.7038L19.0803 24.9247C18.6377 25.3574 17.9306 25.3574 17.488 24.9247L14.5335 22.0364C14.0837 21.5967 14.0755 20.8756 14.5152 20.4258C14.9549 19.9761 15.676 19.9679 16.1258 20.4076L18.2842 22.5176L24.8744 16.0751Z" fill="#8391B3"/>
</svg>
