<svg width="24" height="24" viewBox="0 0 24 24" fill="none" xmlns="http://www.w3.org/2000/svg">
<path d="M9.7019 8.64124C9.409 8.34835 8.93413 8.34835 8.64124 8.64124C8.34834 8.93414 8.34834 9.40901 8.64124 9.7019L10.9393 12L8.64124 14.2981C8.34834 14.591 8.34834 15.0659 8.64124 15.3588C8.93413 15.6517 9.409 15.6517 9.7019 15.3588L12 13.0607L14.2981 15.3588C14.591 15.6517 15.0659 15.6517 15.3588 15.3588C15.6516 15.0659 15.6516 14.591 15.3588 14.2981L13.0607 12L15.3588 9.7019C15.6516 9.40901 15.6516 8.93414 15.3588 8.64124C15.0659 8.34835 14.591 8.34835 14.2981 8.64124L12 10.9393L9.7019 8.64124Z" fill="#E90000"/>
<path fill-rule="evenodd" clip-rule="evenodd" d="M2.80385 19C2 17.6077 2 15.7385 2 12C2 8.26154 2 6.3923 2.80385 5C3.33046 4.08788 4.08788 3.33046 5 2.80385C6.3923 2 8.26154 2 12 2C15.7385 2 17.6077 2 19 2.80385C19.9121 3.33046 20.6695 4.08788 21.1962 5C22 6.3923 22 8.26154 22 12C22 15.7385 22 17.6077 21.1962 19C20.6695 19.9121 19.9121 20.6695 19 21.1962C17.6077 22 15.7385 22 12 22C8.26154 22 6.3923 22 5 21.1962C4.08788 20.6695 3.33046 19.9121 2.80385 19ZM20.4056 7.75559C20.3146 6.75097 20.1453 6.1798 19.8971 5.75C19.5022 5.06591 18.9341 4.49784 18.25 4.10289C17.8202 3.85474 17.249 3.68541 16.2444 3.59436C15.2192 3.50144 13.8968 3.5 12 3.5C10.1032 3.5 8.78082 3.50144 7.75559 3.59436C6.75097 3.68541 6.1798 3.85474 5.75 4.10289C5.06591 4.49784 4.49784 5.06591 4.10289 5.75C3.85474 6.1798 3.68541 6.75097 3.59436 7.75559C3.50144 8.78082 3.5 10.1032 3.5 12C3.5 13.8968 3.50144 15.2192 3.59436 16.2444C3.68541 17.249 3.85474 17.8202 4.10289 18.25C4.49784 18.9341 5.06591 19.5022 5.75 19.8971C6.1798 20.1453 6.75097 20.3146 7.75559 20.4056C8.78082 20.4986 10.1032 20.5 12 20.5C13.8968 20.5 15.2192 20.4986 16.2444 20.4056C17.249 20.3146 17.8202 20.1453 18.25 19.8971C18.9341 19.5022 19.5022 18.9341 19.8971 18.25C20.1453 17.8202 20.3146 17.249 20.4056 16.2444C20.4986 15.2192 20.5 13.8968 20.5 12C20.5 10.1032 20.4986 8.78082 20.4056 7.75559Z" fill="#E90000"/>
</svg>
