<svg width="20" height="20" viewBox="0 0 20 20" fill="none" xmlns="http://www.w3.org/2000/svg">
<path d="M1.5 4.5C1.5 3.11929 2.61929 2 4 2H16C17.3807 2 18.5 3.11929 18.5 4.5V10.5C18.5 11.8807 17.3807 13 16 13V14.5C18.2091 14.5 20 12.7091 20 10.5V4.5C20 2.29086 18.2091 0.5 16 0.5H4C1.79086 0.5 0 2.29086 0 4.5V10.5C0 12.7091 1.79086 14.5 4 14.5V13C2.61929 13 1.5 11.8807 1.5 10.5V4.5Z" fill="white"/>
<path d="M4 6.75C3.58579 6.75 3.25 7.08579 3.25 7.5C3.25 7.91421 3.58579 8.25 4 8.25H16C16.4142 8.25 16.75 7.91421 16.75 7.5C16.75 7.08579 16.4142 6.75 16 6.75H4Z" fill="white"/>
<path d="M8 9.75C7.58579 9.75 7.25 10.0858 7.25 10.5C7.25 10.9142 7.58579 11.25 8 11.25H12C12.4142 11.25 12.75 10.9142 12.75 10.5C12.75 10.0858 12.4142 9.75 12 9.75H8Z" fill="white"/>
<path d="M7.25 13.5C7.25 13.0858 7.58579 12.75 8 12.75H10C10.4142 12.75 10.75 13.0858 10.75 13.5C10.75 13.9142 10.4142 14.25 10 14.25H8C7.58579 14.25 7.25 13.9142 7.25 13.5Z" fill="white"/>
<path d="M4.75 16.5V9.5H6.25V16.5C6.25 17.1904 6.80964 17.75 7.5 17.75H12.5C13.1904 17.75 13.75 17.1904 13.75 16.5V9.5H15.25V16.5C15.25 18.0188 14.0188 19.25 12.5 19.25H7.5C5.98122 19.25 4.75 18.0188 4.75 16.5Z" fill="white"/>
<path d="M5 5.5C5.55228 5.5 6 5.05228 6 4.5C6 3.94772 5.55228 3.5 5 3.5C4.44772 3.5 4 3.94772 4 4.5C4 5.05228 4.44772 5.5 5 5.5Z" fill="white"/>
</svg>
