<svg width="70" height="70" viewBox="0 0 70 70" fill="none" xmlns="http://www.w3.org/2000/svg">
<path fill-rule="evenodd" clip-rule="evenodd" d="M35.453 13.8096C35.2209 13.5449 34.7791 13.5449 34.5471 13.8096L33.1327 15.423C31.8478 16.8886 29.7564 17.3453 27.9757 16.5816L25.9853 15.7279C25.6179 15.5704 25.2541 15.7927 25.1772 16.0756L23.3009 15.5655L25.1772 16.0756L24.6189 18.1292C24.1035 20.025 22.398 21.3262 20.4614 21.3932L18.2892 21.4683C17.8877 21.4822 17.6911 21.8179 17.7422 22.079L18.1506 24.1661C18.5295 26.1021 17.5624 28.0228 15.8282 28.9144L14.9391 27.1851L15.8282 28.9144L13.9045 29.9035C13.5894 30.0655 13.5355 30.4164 13.7126 30.6499L15.0068 32.357C16.1946 33.9237 16.1946 36.0762 15.0068 37.6429L13.8732 36.7834L15.0068 37.6429L13.7126 39.35C13.5355 39.5835 13.5894 39.9344 13.9045 40.0964L13.0154 41.8257L13.9045 40.0964L15.8282 41.0855L14.9391 42.8148L15.8282 41.0855C17.5624 41.9771 18.5295 43.8977 18.1506 45.8338L17.7422 47.9209C17.6911 48.182 17.8877 48.5177 18.2892 48.5316L20.4614 48.6067C22.398 48.6737 24.1035 49.9749 24.6189 51.8707L25.1772 53.9243C25.2541 54.2072 25.6179 54.4295 25.9853 54.272L27.9757 53.4183C29.7564 52.6546 31.8478 53.1113 33.1327 54.5769L34.5471 56.1903C34.7791 56.455 35.2209 56.455 35.453 56.1903L36.8674 54.5769C38.1522 53.1113 40.2437 52.6546 42.0244 53.4183L44.0148 54.272C44.3822 54.4295 44.7459 54.2072 44.8229 53.9243L45.3812 51.8707C45.8965 49.9749 47.6021 48.6737 49.5386 48.6067L51.7109 48.5316C52.1123 48.5177 52.309 48.182 52.2579 47.9209L51.8495 45.8338C51.4706 43.8977 52.4377 41.9771 54.1719 41.0855L56.0956 40.0964C56.4107 39.9344 56.4645 39.5835 56.2875 39.35L54.9933 37.6429C53.8054 36.0762 53.8054 33.9237 54.9933 32.357L56.2875 30.6499C56.4645 30.4164 56.4107 30.0655 56.0956 29.9035L54.1719 28.9144C52.4377 28.0228 51.4706 26.1022 51.8495 24.1661L52.2579 22.079C52.309 21.8179 52.1123 21.4822 51.7109 21.4683L49.5386 21.3932C47.6021 21.3262 45.8965 20.025 45.3812 18.1292L44.8229 16.0756C44.7459 15.7927 44.3822 15.5704 44.0148 15.7279L42.0244 16.5816C40.2437 17.3453 38.1523 16.8886 36.8674 15.423L35.453 13.8096ZM38.3772 11.2459L36.9151 12.5278L38.3772 11.2459L39.7917 12.8594C39.952 13.0422 40.2385 13.1161 40.4915 13.0076L42.4819 12.1539C44.9476 11.0964 47.8578 12.4155 48.5755 15.0554L49.1338 17.109C49.1889 17.3114 49.3902 17.4968 49.6731 17.5066L51.8453 17.5818C54.5356 17.6748 56.6046 20.1166 56.0744 22.8259L55.6659 24.913C55.6275 25.1092 55.7187 25.3369 55.95 25.4558L57.8738 26.4449C60.2968 27.6907 61.0516 30.8031 59.3864 32.9994L58.0922 34.7065C57.9576 34.884 57.9576 35.1159 58.0922 35.2934L59.3864 37.0005C61.0516 39.1968 60.2968 42.3092 57.8738 43.555L55.95 44.5441C55.7187 44.663 55.6275 44.8907 55.6659 45.0869L56.0744 47.174C56.6046 49.8833 54.5356 52.3251 51.8453 52.4181L49.6731 52.4933C49.3902 52.5031 49.1889 52.6885 49.1338 52.8909L48.5755 54.9445C47.8578 57.5844 44.9476 58.9035 42.4819 57.846L40.4915 56.9923L41.17 55.4104L40.4915 56.9923C40.2385 56.8838 39.952 56.9577 39.7917 57.1405L38.3772 58.7539C36.5961 60.7857 33.404 60.7857 31.6228 58.754L30.2084 57.1405C30.0481 56.9577 29.7616 56.8838 29.5086 56.9923L27.5181 57.846C25.0525 58.9035 22.1422 57.5844 21.4245 54.9445L20.8662 52.8909C20.8112 52.6885 20.6098 52.5031 20.327 52.4933L18.1548 52.4181C15.4645 52.3251 13.3955 49.8833 13.9257 47.174L14.3341 45.0869C14.3725 44.8907 14.2814 44.663 14.0501 44.5441L12.1263 43.555C9.7033 42.3092 8.94851 39.1968 10.6136 37.0005L11.7886 37.8913L10.6136 37.0005L11.9079 35.2934C12.0424 35.1159 12.0424 34.884 11.9079 34.7065L10.6136 32.9994C8.94851 30.8031 9.70331 27.6907 12.1263 26.4449L14.0501 25.4558C14.2814 25.3369 14.3725 25.1092 14.3341 24.913L13.9257 22.8259C13.3955 20.1166 15.4645 17.6748 18.1548 17.5818L20.327 17.5066C20.6098 17.4968 20.8112 17.3114 20.8662 17.109L22.4372 17.5361L20.8662 17.109L21.4245 15.0554C22.1422 12.4155 25.0525 11.0964 27.5181 12.1539L29.5086 13.0076L28.7422 14.7946L29.5086 13.0076C29.7616 13.1161 30.0481 13.0422 30.2084 12.8594L31.6228 11.2459C33.404 9.21424 36.5961 9.21424 38.3772 11.2459ZM42.4684 27.4454C43.2363 26.6947 44.4673 26.7086 45.2181 27.4765C45.9688 28.2444 45.9548 29.4755 45.1869 30.2262L32.5761 42.5545C31.8204 43.2932 30.6132 43.2932 29.8575 42.5545L24.8132 37.6232C24.0453 36.8725 24.0313 35.6414 24.7821 34.8735C25.5328 34.1056 26.7638 34.0917 27.5317 34.8424L31.2168 38.4449L42.4684 27.4454Z" fill="white"/>
</svg>
