<svg width="16" height="16" viewBox="0 0 16 16" fill="none" xmlns="http://www.w3.org/2000/svg">
<path d="M10.484 0H9.75444V2.40706H10.484V8.70037C10.484 9.94335 9.37183 10.9498 7.99941 10.9498C6.62817 10.9498 5.51593 9.94335 5.51593 8.70037V2.40706H6.24556V0H5.51593H1V3.27237V8.8259C1 12.3281 4.13397 15.1667 7.99941 15.1667C11.866 15.1667 15 12.3281 15 8.8259V3.27237V0H10.484Z" fill="#2AABE4"/>
<path d="M13.8729 12.2768C12.6252 14.0163 10.4605 15.1666 7.99947 15.1666C4.13397 15.1666 1 12.328 1 8.82585V8.40953C1.55985 7.50553 2.29032 6.38616 2.72536 5.84229C3.51227 4.85619 4.78658 3.17755 7.77448 3.11475C7.77448 3.11475 8.26072 2.70627 8.97841 2.59033L8.8856 3.64983C8.8856 3.64983 9.77709 4.70939 10.0788 5.0764C10.3795 5.4434 10.2985 5.94666 10.2985 5.94666C10.2985 5.94666 11.2252 7.09694 11.5034 7.59151C11.7807 8.08698 11.5749 8.93593 11.0193 9.1726C10.4638 9.40822 10.0725 8.92825 9.82929 8.70032C9.58617 8.47238 8.96128 8.04738 8.77896 7.97685C8.59658 7.90537 8.01442 8.0792 7.69344 7.88996C7.37135 7.70164 7.05896 7.22157 7.05896 7.22157C7.05896 7.22157 6.26876 9.61786 8.42279 11.0028C10.3315 12.2295 11.8586 12.3522 13.8729 12.2768Z" fill="white"/>
</svg>
